<?xml version="1.0" standalone="no"?><!DOCTYPE svg PUBLIC "-//W3C//DTD SVG 1.1//EN" "http://www.w3.org/Graphics/SVG/1.1/DTD/svg11.dtd"><svg t="1541842685206" class="icon" style="" viewBox="0 0 1024 1024" version="1.1" xmlns="http://www.w3.org/2000/svg" p-id="5406" xmlns:xlink="http://www.w3.org/1999/xlink" width="48" height="48"><defs><style type="text/css"></style></defs><path d="M260.806133 768.00625c-0.099998 23.499426 19.099534 42.698958 42.59896 42.698957H346.004053V960.001562c0 35.399136 28.599302 63.998438 63.998437 63.998438s63.998438-28.599302 63.998438-63.998438V810.705207h85.297917V960.001562c0 35.299138 28.499304 63.998438 63.798443 63.998438h0.199995c35.299138 0 63.998438-28.499304 63.998437-63.798442V810.705207H729.994678c23.499426 0 42.698958-19.199531 42.698957-42.698957V341.416665h-511.9875V768.00625zM879.39103 341.416665h-0.099997c-35.299138 0-63.998438 28.499304-63.998438 63.798442V704.007812c0 35.399136 28.599302 63.998438 63.998438 63.998438s63.998438-28.599302 63.998437-63.998438V405.415102c0-35.399136-28.599302-63.998438-63.89844-63.998437zM154.208735 341.416665h-0.199995c-35.299138 0-63.998438 28.499304-63.998438 63.798442V704.007812c0 35.399136 28.599302 63.998438 63.998438 63.998438s63.998438-28.599302 63.998438-63.998438V405.415102c0.099998-35.299138-28.499304-63.998438-63.798443-63.998437zM260.706135 298.717707h511.9875c0-84.897927-41.598984-159.996094-105.397426-206.494959L722.994849 36.524108c8.399795-8.299797 8.499792-21.69947 0.199995-30.099265-8.299797-8.399795-21.69947-8.499792-30.099265-0.199995-0.099998 0.099998-0.199995 0.099998-0.199995 0.199995l-63.09846 62.898465c-35.099143-17.499573-73.798198-26.599351-112.997241-26.699349-39.499036 0-78.398086 9.199775-113.697224 26.899344L339.604209 6.224848c-8.299797-8.299797-21.799468-8.299797-30.099265 0s-8.299797 21.799468 0 30.099265l55.898635 55.898635C302.105124 138.921608 260.706135 214.019775 260.706135 298.717707z m341.291668-127.996875h42.698957v42.59896H601.997803v-42.59896z m-213.294793 0h42.698958v42.59896h-42.698958v-42.59896z" fill="#96C03D" p-id="5407"></path></svg>