<?xml version="1.0" standalone="no"?><!DOCTYPE svg PUBLIC "-//W3C//DTD SVG 1.1//EN" "http://www.w3.org/Graphics/SVG/1.1/DTD/svg11.dtd"><svg t="1541842722660" class="icon" style="" viewBox="0 0 1024 1024" version="1.1" xmlns="http://www.w3.org/2000/svg" p-id="6027" xmlns:xlink="http://www.w3.org/1999/xlink" width="48" height="48"><defs><style type="text/css"></style></defs><path d="M864.838737 923.882105h-139.592421l9.738105-117.680842h-68.579368l-9.738106 117.680842H367.333053l-9.738106-117.680842h-68.581052l9.739789 117.680842H159.161263L80.842105 413.797053 276.842105 100.117895h470.31579L943.157895 413.797053l-78.319158 510.085052zM707.796211 257.162105h-125.797053l8.522105 58.839579h-157.042526l8.522105-58.839579h-125.797053l-78.725052 156.636632 39.363368 313.680842h470.31579l39.363368-313.680842-78.725052-156.636632zM411.565474 556.638316c0-56.020211-16.282947-91.223579-29.237895-63.213474-12.956632 28.010105-12.956632 98.416842 0 126.426947s29.237895-7.191579 29.237895-63.213473z m247.129263-6.088421c0-56.020211-16.282947-91.223579-29.237895-63.213474s-12.956632 98.416842 0 126.426947 29.237895-7.191579 29.237895-63.213473z" fill="#1E9CEF" p-id="6028"></path></svg>