<?xml version="1.0" standalone="no"?><!DOCTYPE svg PUBLIC "-//W3C//DTD SVG 1.1//EN" "http://www.w3.org/Graphics/SVG/1.1/DTD/svg11.dtd"><svg t="1541842608275" class="icon" style="" viewBox="0 0 1024 1024" version="1.1" xmlns="http://www.w3.org/2000/svg" p-id="3993" xmlns:xlink="http://www.w3.org/1999/xlink" width="48" height="48"><defs><style type="text/css"></style></defs><path d="M531.872 74.432h60.8v81.504c95.232 3.648 191.616-7.744 286.144 6.4 3.2 10.784 6.912 21.472 10.496 32 24 4.288 62.688 1.312 66.464 33.888a927.136 927.136 0 0 1-1.536 179.392 734.624 734.624 0 0 1-1.824 190.784 675.584 675.584 0 0 1 3.2 176.64c-4.384 31.648-41.92 29.408-65.632 33.888a151.36 151.36 0 0 1-12.096 49.568 121.6 121.6 0 0 1-61.472 9.6c-74.592-0.704-149.184-0.416-223.68-0.416v81.504h-63.712C374.4 921.184 219.072 895.232 64 868.16V156.032c156-27.168 312-53.824 467.872-81.6z" fill="#733781" p-id="3994"></path><path d="M592.736 186.272h264.672v40.512c23.392 0 46.816 0.512 70.4 1.536 1.312 53.536 1.824 107.04-0.416 160.576-23.296 0.8-46.72 1.216-69.92 1.312v447.52h-264.672v-81.6h193.344v-40.512h-193.344v-51.2h193.344v-40.512h-193.344V572.8h193.344v-40.512h-193.344v-51.2h193.248v-40.512h-193.344v-51.2h193.344v-40.512h-193.344v-51.2h193.344V257.152h-193.344V186.272zM378.432 341.344c20.256-1.12 40.608-2.24 61.056-3.2V675.2c-21.984-0.928-43.744-2.144-65.536-3.2-40.512-77.856-84.352-153.952-123.52-232.512 2.24 75.296 0.928 150.72 1.12 226.016-18.528-1.216-36.832-2.336-55.264-3.456q0.448-155.072 0-310.4l62.88-3.2c39.776 72.864 80.192 145.408 118.848 218.976 0.832-75.36 0-150.784 0.416-226.08z" fill="#FFFFFF" p-id="3995"></path><path d="M887.744 419.904c13.216 0.512 26.464 1.12 39.776 1.728a2094.016 2094.016 0 0 1-0.32 160.384c-13.216 0.608-26.368 1.216-39.488 1.728q-0.128-81.984 0.032-163.84zM887.744 613.152c13.216 0.608 26.56 1.312 40 2.048a2855.36 2855.36 0 0 1 0 159.648l-40 2.432q-0.16-82.112 0-164.128z" fill="#FFFFFF" p-id="3996"></path></svg>