<?xml version="1.0" standalone="no"?><!DOCTYPE svg PUBLIC "-//W3C//DTD SVG 1.1//EN" "http://www.w3.org/Graphics/SVG/1.1/DTD/svg11.dtd"><svg t="1541842883798" class="icon" style="" viewBox="0 0 1024 1024" version="1.1" xmlns="http://www.w3.org/2000/svg" p-id="8244" xmlns:xlink="http://www.w3.org/1999/xlink" width="48" height="48"><defs><style type="text/css"></style></defs><path d="M847.184 265.608A63.71 63.71 0 0 0 858 230c0-35.35-28.66-64-64-64a63.706 63.706 0 0 0-35.61 10.818C689.418 126.03 604.22 96 512 96 282.25 96 96 282.25 96 512c0 229.754 186.25 416 416 416 229.746 0 416-186.246 416-416 0-92.222-30.032-177.42-80.816-246.392zM783.66 783.664c-35.292 35.292-76.382 62.998-122.128 82.348-47.344 20.024-97.652 30.178-149.532 30.178-51.88 0-102.19-10.154-149.534-30.178-45.746-19.35-86.834-47.054-122.128-82.348s-63-76.382-82.348-122.128C137.964 614.192 127.81 563.88 127.81 512c0-51.88 10.154-102.19 30.178-149.534 19.348-45.746 47.054-86.834 82.348-122.128s76.382-63 122.128-82.348c47.346-20.026 97.656-30.18 149.536-30.18 51.878 0 102.188 10.154 149.532 30.178a382.442 382.442 0 0 1 75.604 42.654A63.706 63.706 0 0 0 730 230c0 35.35 28.654 64 64 64 10.586 0 20.56-2.586 29.356-7.136a382.17 382.17 0 0 1 42.654 75.602c20.026 47.344 30.18 97.654 30.18 149.534 0 51.878-10.154 102.192-30.18 149.536-19.35 45.746-47.054 86.836-82.35 122.128z" fill="#4F8FF7" p-id="8245"></path><path d="M512.006 512m-192 0a192 192 0 1 0 384 0 192 192 0 1 0-384 0Z" fill="#4F8FF7" p-id="8246"></path></svg>