<?xml version="1.0" standalone="no"?><!DOCTYPE svg PUBLIC "-//W3C//DTD SVG 1.1//EN" "http://www.w3.org/Graphics/SVG/1.1/DTD/svg11.dtd"><svg t="1541842691875" class="icon" style="" viewBox="0 0 1024 1024" version="1.1" xmlns="http://www.w3.org/2000/svg" p-id="5530" xmlns:xlink="http://www.w3.org/1999/xlink" width="48" height="48"><defs><style type="text/css"></style></defs><path d="M802.110366 536.135334c-1.42211-132.256196 109.502442-194.82902 115.190881-197.67324-62.572824-89.592907-160.698389-102.391894-194.82902-102.391894-82.482359-9.954767-162.120499 46.929618-203.361679 46.929618-42.663289 0-106.658223-46.929618-176.341595-45.507508-91.015017 1.42211-174.919486 51.195947-221.849104 130.834086C27.060613 526.180566 98.166095 762.250766 189.181112 891.662743c45.507508 62.572824 99.547675 135.100416 169.231047 132.256197 66.839153-2.844219 93.859236-42.663289 174.919486-42.663289s103.814004 42.663289 176.341595 41.241179c72.527592-1.42211 119.45721-63.994934 163.542608-127.989867 51.195947-72.527592 72.527592-143.633073 73.949701-147.899403-1.42211-1.42211-142.210964-54.040166-145.055183-210.472226z" fill="#6699FF" p-id="5531"></path><path d="M672.698389 166.386828c36.974851-44.085399 61.150714-105.236113 55.462276-166.386828-54.040166 1.42211-118.0351 34.130631-156.43206 78.21603-34.130631 38.39696-63.994934 102.391894-56.884386 160.698389 58.306495 5.688439 119.45721-28.442193 157.85417-72.527591z" fill="#6699FF" p-id="5532"></path></svg>