<?xml version="1.0" standalone="no"?><!DOCTYPE svg PUBLIC "-//W3C//DTD SVG 1.1//EN" "http://www.w3.org/Graphics/SVG/1.1/DTD/svg11.dtd"><svg t="1541842698330" class="icon" style="" viewBox="0 0 1024 1024" version="1.1" xmlns="http://www.w3.org/2000/svg" p-id="5655" xmlns:xlink="http://www.w3.org/1999/xlink" width="48" height="48"><defs><style type="text/css"></style></defs><path d="M0 0h1024v1024H0V0z m460.8 317.44H368.64V563.2c0 61.44-20.48 76.8-56.32 76.8-15.36 0-30.72-5.12-46.08-5.12L256 706.56c15.36 5.12 40.96 10.24 61.44 10.24 87.04 0 143.36-40.96 143.36-153.6V317.44z m204.8-10.24c-92.16 0-148.48 51.2-148.48 117.76 0 56.32 46.08 97.28 107.52 117.76 46.08 15.36 66.56 30.72 66.56 56.32 0 25.6-20.48 46.08-61.44 46.08-35.84 0-71.68-10.24-92.16-25.6l-15.36 71.68c20.48 10.24 61.44 25.6 107.52 25.6 107.52 0 153.6-56.32 153.6-122.88 0-56.32-30.72-92.16-97.28-117.76-51.2-20.48-71.68-30.72-71.68-56.32 0-20.48 20.48-35.84 56.32-35.84 35.84 0 61.44 10.24 76.8 20.48l20.48-76.8c-30.72-10.24-61.44-20.48-102.4-20.48z" fill="#F1A14F" p-id="5656"></path></svg>