<?xml version="1.0" standalone="no"?><!DOCTYPE svg PUBLIC "-//W3C//DTD SVG 1.1//EN" "http://www.w3.org/Graphics/SVG/1.1/DTD/svg11.dtd"><svg t="1541841808013" class="icon" style="" viewBox="0 0 2633 1024" version="1.1" xmlns="http://www.w3.org/2000/svg" p-id="3993" xmlns:xlink="http://www.w3.org/1999/xlink" width="123.421875" height="48"><defs><style type="text/css"></style></defs><path d="M0 0h2633.142857v877.714286H1316.571429v146.285714H731.428571V877.714286H0V0z m146.285714 731.428571h292.571429V292.571429h146.285714v438.857142h146.285714V146.285714H146.285714v585.142857z m731.428572-585.142857v731.428572h292.571428V731.428571h292.571429V146.285714H877.714286z m292.571428 146.285715h146.285715v292.571428H1170.285714V292.571429z m438.857143-146.285715v585.142857h292.571429V292.571429h146.285714v438.857142h146.285714V292.571429h146.285715v438.857142h146.285714V146.285714h-877.714286z" fill="#CB3837" p-id="3994"></path><path d="M146.285714 731.428571h292.571429V292.571429h146.285714v438.857142h146.285714V146.285714H146.285714zM877.714286 146.285714v731.428572h292.571428V731.428571h292.571429V146.285714H877.714286z m438.857143 438.857143H1170.285714V292.571429h146.285715v292.571428zM1609.142857 146.285714v585.142857h292.571429V292.571429h146.285714v438.857142h146.285714V292.571429h146.285715v438.857142h146.285714V146.285714z" fill="#FFFFFF" p-id="3995"></path></svg>