<?xml version="1.0" standalone="no"?><!DOCTYPE svg PUBLIC "-//W3C//DTD SVG 1.1//EN" "http://www.w3.org/Graphics/SVG/1.1/DTD/svg11.dtd"><svg t="1541842890085" class="icon" style="" viewBox="0 0 1024 1024" version="1.1" xmlns="http://www.w3.org/2000/svg" p-id="8369" xmlns:xlink="http://www.w3.org/1999/xlink" width="48" height="48"><defs><style type="text/css"></style></defs><path d="M956.330667 188.330667L793.002667 25.002667 768 0v128a85.333333 85.333333 0 0 0 85.333333 85.333333h128l-25.002666-25.002666z" fill="#78B0FD" p-id="8370"></path><path d="M853.333333 213.333333a85.333333 85.333333 0 0 1-85.333333-85.333333V0H170.666667a85.333333 85.333333 0 0 0-85.333334 85.333333v853.333334a85.333333 85.333333 0 0 0 85.333334 85.333333h725.333333a85.333333 85.333333 0 0 0 85.333333-85.333333V213.333333h-128z" fill="#4385E3" p-id="8371"></path><path d="M295.978667 368.896h138.922666c79.786667 0 119.68 33.962667 119.68 101.845333 0 68.522667-40.192 102.784-120.618666 102.784H347.136V704H295.978667V368.896z m51.157333 43.648v117.333333h83.541333c25.344 0 43.818667-4.693333 55.381334-14.08 11.562667-9.685333 17.365333-24.704 17.365333-45.056 0-20.949333-5.930667-35.669333-17.834667-44.117333-11.562667-9.386667-29.866667-14.08-54.912-14.08H347.136zM791.082667 531.328h-48.341334c-3.754667-13.141333-9.557333-22.229333-17.322666-27.221333-8.490667-5.632-21.333333-8.448-38.485334-8.448-15.658667 0-26.922667 2.176-33.792 6.570666a22.869333 22.869333 0 0 0-13.141333 21.546667c0 8.149333 6.528 15.317333 19.669333 21.589333 8.149333 3.456 24.405333 8.277333 48.853334 14.506667 27.221333 6.570667 47.701333 14.250667 61.482666 22.997333 19.370667 12.245333 29.098667 29.141333 29.098667 50.688 0 51.285333-36.010667 76.970667-107.946667 76.970667-66.346667 0-102.272-28.330667-107.946666-84.906667h48.853333c2.816 16.256 8.576 27.818667 17.322667 34.688 8.789333 6.272 22.229333 9.386667 40.405333 9.386667 38.741333 0 58.154667-10.922667 58.154667-32.853333 0-11.904-7.168-21.12-21.589334-27.690667-7.509333-3.754667-23.808-8.448-48.853333-14.037333-28.757333-6.570667-48.810667-13.653333-60.074667-21.162667-18.730667-11.861333-28.117333-28.16-28.117333-48.810667 0-22.229333 9.045333-39.424 27.221333-51.626666 18.176-12.501333 41.898667-18.773333 71.338667-18.773334 63.189333 0.085333 97.578667 25.557333 103.210667 76.586667z" fill="#FFFFFF" p-id="8372"></path></svg>