<?xml version="1.0" standalone="no"?><!DOCTYPE svg PUBLIC "-//W3C//DTD SVG 1.1//EN" "http://www.w3.org/Graphics/SVG/1.1/DTD/svg11.dtd"><svg t="1541842715662" class="icon" style="" viewBox="0 0 1024 1024" version="1.1" xmlns="http://www.w3.org/2000/svg" p-id="5903" xmlns:xlink="http://www.w3.org/1999/xlink" width="48" height="48"><defs><style type="text/css"></style></defs><path d="M1023.104 672a104.32 104.32 0 0 0-42.048-71.296A154.176 154.176 0 0 0 889.728 569.6a205.952 205.952 0 0 0-79.616 12.352c-7.296 2.688-14.528 5.824-21.888 8.768-0.896-1.92-2.24-3.712-3.072-5.504a149.184 149.184 0 0 1-18.688-48.256 108.16 108.16 0 0 1 0-37.824c2.88-12.032 6.4-23.872 10.176-35.776a8.704 8.704 0 0 0-5.248-12.288 23.616 23.616 0 0 0-6.4-2.112 98.88 98.88 0 0 0-42.24 3.136 12.16 12.16 0 0 0-9.536 9.664c-0.64 3.136-1.92 6.4-2.752 9.216a231.232 231.232 0 0 1-12.032 38.4c-14.656 30.656-31.36 60.096-48.512 89.6-1.856 3.136-3.776 6.4-6.4 10.112a132.864 132.864 0 0 1-14.4-37.312 115.2 115.2 0 0 1 0-44.8c2.752-11.136 6.4-22.08 9.728-33.024a7.616 7.616 0 0 0-3.84-10.688 22.656 22.656 0 0 0-7.68-3.776 94.528 94.528 0 0 0-43.712 3.584 11.904 11.904 0 0 0-8.128 8.896 347.136 347.136 0 0 1-12.8 40.32c-22.656 52.16-45.952 104.128-69.248 155.968-4.864 10.816-10.56 21.312-16.064 32a76.8 76.8 0 0 1-5.12 7.552 6.4 6.4 0 0 1-1.92-3.904A107.072 107.072 0 0 1 470.4 704a1187.008 1187.008 0 0 1 25.6-105.92 14.912 14.912 0 0 0-2.368-14.72 21.824 21.824 0 0 0-27.584-3.328c-0.832 0.64-1.856 1.024-3.52 1.984 0-2.496 0.448-4.096 0.704-5.696a88.96 88.96 0 0 0-1.28-36.224 28.672 28.672 0 0 0-30.08-22.976 64.448 64.448 0 0 0-21.312 4.096 161.28 161.28 0 0 0-67.648 53.888 20.928 20.928 0 0 1-6.4 5.376c-23.616 13.184-47.36 26.176-71.04 39.232l-26.368 14.528c-7.04-7.04-13.504-14.016-20.8-19.84-22.272-18.24-44.8-36.032-67.328-54.08a266.432 266.432 0 0 1-53.888-53.824 96 96 0 0 1-18.688-52.48 123.712 123.712 0 0 1 18.752-68.608 263.232 263.232 0 0 1 62.208-68.352A572.8 572.8 0 0 1 241.024 262.4a615.488 615.488 0 0 1 125.376-55.616 345.088 345.088 0 0 1 138.56-15.808 141.632 141.632 0 0 1 53.312 15.552 55.168 55.168 0 0 1 28.032 30.464 76.8 76.8 0 0 1 1.28 42.688 163.2 163.2 0 0 1-42.432 74.24A286.4 286.4 0 0 1 427.904 428.8a320.384 320.384 0 0 1-79.744 17.088 149.376 149.376 0 0 1-65.216-7.936 84.864 84.864 0 0 1-35.968-24.512 5.376 5.376 0 0 0-7.232-2.368 6.4 6.4 0 0 0-2.688 8.064 77.312 77.312 0 0 0 6.4 15.04 85.952 85.952 0 0 0 28.48 27.072 138.88 138.88 0 0 0 70.72 19.2 354.24 354.24 0 0 0 111.488-14.272 273.408 273.408 0 0 0 133.696-80.96 206.784 206.784 0 0 0 56.512-118.336A114.816 114.816 0 0 0 633.728 201.728a114.688 114.688 0 0 0-51.2-49.024A239.744 239.744 0 0 0 481.856 127.68h-35.136a418.112 418.112 0 0 0-123.712 25.6 846.72 846.72 0 0 0-88.768 37.952 573.184 573.184 0 0 0-169.216 121.6 253.184 253.184 0 0 0-55.808 88.256c-3.392 9.92-5.504 20.416-7.936 30.656 0 0.832 0.768 1.664-1.344 2.496v14.464a40.832 40.832 0 0 1 3.264 11.072 162.24 162.24 0 0 0 34.624 63.552A416.768 416.768 0 0 0 115.328 592.128c24.64 17.664 49.408 35.072 73.92 52.352 4.224 3.008 8.128 6.4 12.8 10.112-3.904 2.112-7.232 4.032-10.624 5.76a566.272 566.272 0 0 0-92.16 57.6 189.12 189.12 0 0 0-45.824 46.528 100.544 100.544 0 0 0-11.584 96.512 56.96 56.96 0 0 0 19.2 25.024 28.16 28.16 0 0 0 9.472 4.928c8.704 1.792 17.536 3.136 26.304 5.056H121.728a153.6 153.6 0 0 0 74.88-27.52 165.056 165.056 0 0 0 69.184-99.2 175.936 175.936 0 0 0-1.024-91.52c-0.96-3.072-2.24-5.76-3.072-8.576s-2.304-5.376-3.776-8.768l56.192-32.448 0.832 0.704c-1.024 3.328-2.112 6.4-3.008 10.112a229.376 229.376 0 0 0-9.536 74.816 144.064 144.064 0 0 0 25.024 75.072 36.16 36.16 0 0 0 56.704 0.64 131.328 131.328 0 0 0 12.8-20.608c9.152-19.2 17.664-38.4 26.368-57.6l1.536-3.52c-0.64 9.088-1.344 17.088-1.728 25.088a96 96 0 0 0 4.416 36.736 25.216 25.216 0 0 0 21.376 19.2 26.816 26.816 0 0 0 20.032-7.36 84.864 84.864 0 0 0 22.016-26.24c15.552-28.672 31.488-57.088 45.568-86.464 15.232-32 28.544-64.448 42.688-96.768l2.368-5.76c3.328 13.184 5.696 26.112 9.984 38.4a357.312 357.312 0 0 0 17.856 41.472 12.416 12.416 0 0 1-1.6 15.808c-18.432 22.336-36.544 44.8-54.656 67.456a148.864 148.864 0 0 0-11.328 15.488 30.08 30.08 0 0 0-3.904 11.2 14.272 14.272 0 0 0 11.328 16.192 78.272 78.272 0 0 0 22.144 1.6 129.408 129.408 0 0 0 68.608-25.6 72.384 72.384 0 0 0 28.416-77.952 182.272 182.272 0 0 0-7.744-25.216 9.344 9.344 0 0 1 1.024-9.856 801.408 801.408 0 0 0 55.68-94.912 20.032 20.032 0 0 1 2.496-3.968 246.976 246.976 0 0 0 28.16 80.32c-7.424 7.232-14.848 13.76-21.504 20.992a144.256 144.256 0 0 0-34.112 54.144 64.512 64.512 0 0 0-3.776 27.968 23.488 23.488 0 0 0 28.928 21.376 131.584 131.584 0 0 0 78.528-48.64 64 64 0 0 0 8.96-58.368c-1.408-6.08-3.2-11.648-4.928-18.112 7.744-2.432 15.36-5.312 23.168-7.104a204.8 204.8 0 0 1 120.064 7.04 90.688 90.688 0 0 1 52.288 45.696 52.864 52.864 0 0 1-20.032 71.552 46.912 46.912 0 0 0-7.232 4.928 7.104 7.104 0 0 0-1.664 5.504 5.504 5.504 0 0 0 4.352 2.24 39.744 39.744 0 0 0 22.144-9.216 67.008 67.008 0 0 0 30.336-47.744c0-0.576-0.768-1.152 1.28-1.728v-13.568c-2.112-0.576-1.216-1.088-1.28-1.728z m-795.776 55.232a130.432 130.432 0 0 1-46.208 90.24 104.896 104.896 0 0 1-52.992 26.496 38.848 38.848 0 0 1-22.016-1.536 22.592 22.592 0 0 1-12.8-23.104 83.84 83.84 0 0 1 12.416-42.56 151.68 151.68 0 0 1 38.4-42.688 594.496 594.496 0 0 1 75.712-51.2 17.984 17.984 0 0 1 1.984-0.832 134.016 134.016 0 0 1 4.864 45.184z m205.504-159.04a278.272 278.272 0 0 1-7.68 34.688 1028.16 1028.16 0 0 1-43.136 114.624 195.008 195.008 0 0 1-11.2 19.84 14.144 14.144 0 0 1-2.304 2.752c-4.736 4.672-9.216 4.416-11.584-1.728a129.472 129.472 0 0 1-5.952-22.272 116.864 116.864 0 0 1-1.024-15.552 195.584 195.584 0 0 1 30.528-101.568A95.424 95.424 0 0 1 409.728 565.76a52.8 52.8 0 0 1 12.8-5.824c6.912-1.984 11.2 1.28 10.048 8.256z m140.224 179.2l50.368-59.136a68.608 68.608 0 0 1-50.368 59.392z m160.96-39.744c-3.584 2.048-7.424 3.52-11.136 5.44s-4.416 0-4.544-2.88a19.84 19.84 0 0 1 0.768-5.888 126.976 126.976 0 0 1 37.952-61.44 6.4 6.4 0 0 1 1.28-0.704 54.336 54.336 0 0 1-24.384 65.472z" fill="#F03D70" p-id="5904"></path></svg>